{
  "accessors": [
    {
      "bufferView": 2,
      "componentType": 5126,
      "count": 33162,
      "max": [
        88.76850891113281,
        14.441987991333008,
        -1.0135669708251953
      ],
      "min": [
        -23.44840431213379,
        -5.183464050292969,
        -5.5308518409729
      ],
      "type": "VEC3"
    },
    {
      "bufferView": 2,
      "byteOffset": 397944,
      "componentType": 5126,
      "count": 33162,
      "max": [
        0.9949095249176025,
        0.9678129553794861,
        0.9999984502792358
      ],
      "min": [
        -0.9950573444366455,
        -0.9994401335716248,
        -0.9998610615730286
      ],
      "type": "VEC3"
    },
    {
      "bufferView": 1,
      "componentType": 5126,
      "count": 33162,
      "max": [
        0.9995459914207458,
        0.9939320087432861
      ],
      "min": [
        0.00010099999781232327,
        0.001164000015705824
      ],
      "type": "VEC2"
    },
    {
      "bufferView": 0,
      "componentType": 5125,
      "count": 188550,
      "type": "SCALAR"
    },
    {
      "bufferView": 2,
      "byteOffset": 795888,
      "componentType": 5126,
      "count": 43092,
      "max": [
        86.51033782958984,
        15.401784896850586,
        0.3055630028247833
      ],
      "min": [
        -22.03645133972168,
        -6.6282172203063965,
        -5.32053804397583
      ],
      "type": "VEC3"
    },
    {
      "bufferView": 2,
      "byteOffset": 1312992,
      "componentType": 5126,
      "count": 43092,
      "max": [
        0.9973888993263245,
        0.9994466304779053,
        0.9999991059303284
      ],
      "min": [
        -0.992939293384552,
        -0.998904824256897,
        -0.9999660849571228
      ],
      "type": "VEC3"
    },
    {
      "bufferView": 1,
      "byteOffset": 265296,
      "componentType": 5126,
      "count": 43092,
      "max": [
        0.9998819828033447,
        0.9983819723129272
      ],
      "min": [
        0.0,
        0.0
      ],
      "type": "VEC2"
    },
    {
      "bufferView": 0,
      "byteOffset": 754200,
      "componentType": 5125,
      "count": 243600,
      "type": "SCALAR"
    },
    {
      "bufferView": 2,
      "byteOffset": 1830096,
      "componentType": 5126,
      "count": 42578,
      "max": [
        94.40322875976563,
        14.69659423828125,
        0.3277980089187622
      ],
      "min": [
        3.790921926498413,
        -6.2944769859313965,
        -5.618505954742432
      ],
      "type": "VEC3"
    },
    {
      "bufferView": 2,
      "byteOffset": 2341032,
      "componentType": 5126,
      "count": 42578,
      "max": [
        0.999948263168335,
        0.9973372220993042,
        0.9999998807907104
      ],
      "min": [
        -0.9999046325683594,
        -0.9973263144493103,
        -0.9998094439506531
      ],
      "type": "VEC3"
    },
    {
      "bufferView": 1,
      "byteOffset": 610032,
      "componentType": 5126,
      "count": 42578,
      "max": [
        1.0,
        0.9936619997024536
      ],
      "min": [
        0.01046799961477518,
        0.0
      ],
      "type": "VEC2"
    },
    {
      "bufferView": 0,
      "byteOffset": 1728600,
      "componentType": 5125,
      "count": 239442,
      "type": "SCALAR"
    },
    {
      "bufferView": 2,
      "byteOffset": 2851968,
      "componentType": 5126,
      "count": 43072,
      "max": [
        96.87141418457031,
        14.262834548950195,
        0.014905000105500221
      ],
      "min": [
        -12.805739402770996,
        -6.178324222564697,
        -5.732501029968262
      ],
      "type": "VEC3"
    },
    {
      "bufferView": 2,
      "byteOffset": 3368832,
      "componentType": 5126,
      "count": 43072,
      "max": [
        0.9984762072563171,
        0.9993111491203308,
        0.9999983310699463
      ],
      "min": [
        -0.9993529915809631,
        -0.9998975396156311,
        -0.9998081922531128
      ],
      "type": "VEC3"
    },
    {
      "bufferView": 1,
      "byteOffset": 950656,
      "componentType": 5126,
      "count": 43072,
      "max": [
        1.0,
        0.9601340293884277
      ],
      "min": [
        0.0,
        0.0
      ],
      "type": "VEC2"
    },
    {
      "bufferView": 0,
      "byteOffset": 2686368,
      "componentType": 5125,
      "count": 242082,
      "type": "SCALAR"
    },
    {
      "bufferView": 2,
      "byteOffset": 3885696,
      "componentType": 5126,
      "count": 49912,
      "max": [
        74.2640609741211,
        15.66374397277832,
        -0.2777850031852722
      ],
      "min": [
        -27.27623176574707,
        -6.971489906311035,
        -4.9902801513671875
      ],
      "type": "VEC3"
    },
    {
      "bufferView": 2,
      "byteOffset": 4484640,
      "componentType": 5126,
      "count": 49912,
      "max": [
        0.9995532035827637,
        0.9958944320678711,
        0.9999996423721313
      ],
      "min": [
        -0.9999779462814331,
        -0.9999404549598694,
        -0.9999287724494934
      ],
      "type": "VEC3"
    },
    {
      "bufferView": 1,
      "byteOffset": 1295232,
      "componentType": 5126,
      "count": 49912,
      "max": [
        0.9591900110244751,
        0.9999859929084778
      ],
      "min": [
        0.0,
        0.0009759999811649323
      ],
      "type": "VEC2"
    },
    {
      "bufferView": 0,
      "byteOffset": 3654696,
      "componentType": 5125,
      "count": 275202,
      "type": "SCALAR"
    },
    {
      "bufferView": 2,
      "byteOffset": 5083584,
      "componentType": 5126,
      "count": 30824,
      "max": [
        90.39218139648438,
        14.101099967956543,
        -0.20926399528980255
      ],
      "min": [
        -26.607969284057617,
        -6.066212177276611,
        -5.596532821655273
      ],
      "type": "VEC3"
    },
    {
      "bufferView": 2,
      "byteOffset": 5453472,
      "componentType": 5126,
      "count": 30824,
      "max": [
        0.9997162222862244,
        0.9846819043159485,
        0.9999997615814209
      ],
      "min": [
        -0.9999414682388306,
        -0.9990394711494446,
        -0.999991774559021
      ],
      "type": "VEC3"
    },
    {
      "bufferView": 1,
      "byteOffset": 1694528,
      "componentType": 5126,
      "count": 30824,
      "max": [
        1.0,
        0.9818480014801025
      ],
      "min": [
        0.0,
        0.0
      ],
      "type": "VEC2"
    },
    {
      "bufferView": 0,
      "byteOffset": 4755504,
      "componentType": 5125,
      "count": 168648,
      "type": "SCALAR"
    }
  ],
  "asset": {
    "extras": {
      "author": "Forest Run Forever (https://sketchfab.com/2w)",
      "license": "CC-BY-4.0 (http://creativecommons.org/licenses/by/4.0/)",
      "source": "https://sketchfab.com/3d-models/pile-01-6a980bc791dd4e6abc72da4bb10d144d",
      "title": "Pile 01"
    },
    "generator": "Sketchfab-12.67.0",
    "version": "2.0"
  },
  "bufferViews": [
    {
      "buffer": 0,
      "byteLength": 5430096,
      "name": "floatBufferViews",
      "target": 34963
    },
    {
      "buffer": 0,
      "byteLength": 1941120,
      "byteOffset": 5430096,
      "byteStride": 8,
      "name": "floatBufferViews",
      "target": 34962
    },
    {
      "buffer": 0,
      "byteLength": 5823360,
      "byteOffset": 7371216,
      "byteStride": 12,
      "name": "floatBufferViews",
      "target": 34962
    }
  ],
  "buffers": [
    {
      "byteLength": 13194576,
      "uri": "scene.bin"
    }
  ],
  "images": [
    {
      "uri": "textures/pile_01_baseColor.jpeg"
    },
    {
      "uri": "textures/pile_011_baseColor.jpeg"
    },
    {
      "uri": "textures/pile_012_baseColor.jpeg"
    },
    {
      "uri": "textures/pile_013_baseColor.jpeg"
    },
    {
      "uri": "textures/pile_014_baseColor.jpeg"
    },
    {
      "uri": "textures/pile_015_baseColor.jpeg"
    }
  ],
  "materials": [
    {
      "doubleSided": true,
      "name": "pile_01",
      "pbrMetallicRoughness": {
        "baseColorTexture": {
          "index": 0
        },
        "metallicFactor": 0.0
      }
    },
    {
      "doubleSided": true,
      "name": "pile_011",
      "pbrMetallicRoughness": {
        "baseColorTexture": {
          "index": 1
        },
        "metallicFactor": 0.0
      }
    },
    {
      "doubleSided": true,
      "name": "pile_012",
      "pbrMetallicRoughness": {
        "baseColorTexture": {
          "index": 2
        },
        "metallicFactor": 0.0
      }
    },
    {
      "doubleSided": true,
      "name": "pile_013",
      "pbrMetallicRoughness": {
        "baseColorTexture": {
          "index": 3
        },
        "metallicFactor": 0.0
      }
    },
    {
      "doubleSided": true,
      "name": "pile_014",
      "pbrMetallicRoughness": {
        "baseColorTexture": {
          "index": 4
        },
        "metallicFactor": 0.0
      }
    },
    {
      "doubleSided": true,
      "name": "pile_015",
      "pbrMetallicRoughness": {
        "baseColorTexture": {
          "index": 5
        },
        "metallicFactor": 0.0
      }
    }
  ],
  "meshes": [
    {
      "name": "Object_0",
      "primitives": [
        {
          "attributes": {
            "NORMAL": 1,
            "POSITION": 0,
            "TEXCOORD_0": 2
          },
          "indices": 3,
          "material": 0,
          "mode": 4
        }
      ]
    },
    {
      "name": "Object_1",
      "primitives": [
        {
          "attributes": {
            "NORMAL": 5,
            "POSITION": 4,
            "TEXCOORD_0": 6
          },
          "indices": 7,
          "material": 1,
          "mode": 4
        }
      ]
    },
    {
      "name": "Object_2",
      "primitives": [
        {
          "attributes": {
            "NORMAL": 9,
            "POSITION": 8,
            "TEXCOORD_0": 10
          },
          "indices": 11,
          "material": 2,
          "mode": 4
        }
      ]
    },
    {
      "name": "Object_3",
      "primitives": [
        {
          "attributes": {
            "NORMAL": 13,
            "POSITION": 12,
            "TEXCOORD_0": 14
          },
          "indices": 15,
          "material": 3,
          "mode": 4
        }
      ]
    },
    {
      "name": "Object_4",
      "primitives": [
        {
          "attributes": {
            "NORMAL": 17,
            "POSITION": 16,
            "TEXCOORD_0": 18
          },
          "indices": 19,
          "material": 4,
          "mode": 4
        }
      ]
    },
    {
      "name": "Object_5",
      "primitives": [
        {
          "attributes": {
            "NORMAL": 21,
            "POSITION": 20,
            "TEXCOORD_0": 22
          },
          "indices": 23,
          "material": 5,
          "mode": 4
        }
      ]
    }
  ],
  "nodes": [
    {
      "children": [
        1
      ],
      "matrix": [
        1.0,
        0.0,
        0.0,
        0.0,
        0.0,
        2.220446049250313e-16,
        -1.0,
        0.0,
        0.0,
        1.0,
        2.220446049250313e-16,
        0.0,
        0.0,
        0.0,
        0.0,
        1.0
      ],
      "name": "Sketchfab_model"
    },
    {
      "children": [
        2,
        3,
        4,
        5,
        6,
        7
      ],
      "name": "pile_01.obj.cleaner.materialmerger.gles"
    },
    {
      "mesh": 0,
      "name": "Object_2"
    },
    {
      "mesh": 1,
      "name": "Object_3"
    },
    {
      "mesh": 2,
      "name": "Object_4"
    },
    {
      "mesh": 3,
      "name": "Object_5"
    },
    {
      "mesh": 4,
      "name": "Object_6"
    },
    {
      "mesh": 5,
      "name": "Object_7"
    }
  ],
  "samplers": [
    {
      "magFilter": 9729,
      "minFilter": 9987,
      "wrapS": 10497,
      "wrapT": 10497
    }
  ],
  "scene": 0,
  "scenes": [
    {
      "name": "Sketchfab_Scene",
      "nodes": [
        0
      ]
    }
  ],
  "textures": [
    {
      "sampler": 0,
      "source": 0
    },
    {
      "sampler": 0,
      "source": 1
    },
    {
      "sampler": 0,
      "source": 2
    },
    {
      "sampler": 0,
      "source": 3
    },
    {
      "sampler": 0,
      "source": 4
    },
    {
      "sampler": 0,
      "source": 5
    }
  ]
}
